<svg width="24" height="24" viewBox="0 0 24 24" fill="none" xmlns="http://www.w3.org/2000/svg">
<path d="M22.47 18.8202L21.47 14.9602L18.32 3.37015C18.2519 3.11449 18.0853 2.89623 17.8567 2.76315C17.628 2.63008 17.3559 2.59304 17.1 2.66015L13.23 3.66015C13.1376 3.5578 13.0251 3.47564 12.8995 3.41886C12.7739 3.36207 12.6379 3.33187 12.5 3.33015H2.5C2.23478 3.33015 1.98043 3.43551 1.79289 3.62305C1.60536 3.81058 1.5 4.06494 1.5 4.33015V20.3302C1.5 20.5954 1.60536 20.8497 1.79289 21.0373C1.98043 21.2248 2.23478 21.3302 2.5 21.3302H12.5C12.7652 21.3302 13.0196 21.2248 13.2071 21.0373C13.3946 20.8497 13.5 20.5954 13.5 20.3302V12.3302L15.7 20.5502C15.7586 20.7683 15.8893 20.9602 16.0709 21.0946C16.2525 21.229 16.4742 21.2979 16.7 21.2902C16.7864 21.3 16.8736 21.3 16.96 21.2902L21.79 20.0002C21.9177 19.966 22.0374 19.9069 22.1421 19.8262C22.2468 19.7456 22.3344 19.6449 22.4 19.5302C22.5055 19.3089 22.5302 19.0577 22.47 18.8202ZM6.47 19.3702H3.47V17.3702H6.47V19.3702ZM6.47 15.3702H3.47V9.37015H6.47V15.3702ZM6.47 7.37015H3.47V5.37015H6.47V7.37015ZM11.47 19.3702H8.47V17.3702H11.47V19.3702ZM11.47 15.3702H8.47V9.37015H11.47V15.3702ZM11.47 7.37015H8.47V5.37015H11.47V7.37015ZM13.72 5.63015L16.62 4.85015L17.14 6.78015L14.24 7.56015L13.72 5.63015ZM16.31 15.2902L14.76 9.49015L17.66 8.71015L19.21 14.5102L16.31 15.2902ZM17.31 19.1502L16.79 17.2202L19.69 16.4402L20.21 18.3702L17.31 19.1502Z" fill="#53E63E"/>
</svg>
