<svg width="94" height="24" viewBox="0 0 94 24" fill="none" xmlns="http://www.w3.org/2000/svg">
<path d="M22.47 18.8202L21.47 14.9602L18.32 3.37015C18.2519 3.11449 18.0853 2.89623 17.8567 2.76315C17.628 2.63008 17.3559 2.59304 17.1 2.66015L13.23 3.66015C13.1376 3.5578 13.0251 3.47564 12.8995 3.41886C12.7739 3.36207 12.6379 3.33187 12.5 3.33015H2.5C2.23478 3.33015 1.98043 3.43551 1.79289 3.62305C1.60536 3.81058 1.5 4.06494 1.5 4.33015V20.3302C1.5 20.5954 1.60536 20.8497 1.79289 21.0373C1.98043 21.2248 2.23478 21.3302 2.5 21.3302H12.5C12.7652 21.3302 13.0196 21.2248 13.2071 21.0373C13.3946 20.8497 13.5 20.5954 13.5 20.3302V12.3302L15.7 20.5502C15.7586 20.7683 15.8893 20.9602 16.0709 21.0946C16.2525 21.229 16.4742 21.2979 16.7 21.2902C16.7864 21.3 16.8736 21.3 16.96 21.2902L21.79 20.0002C21.9177 19.966 22.0374 19.9069 22.1421 19.8262C22.2468 19.7456 22.3344 19.6449 22.4 19.5302C22.5055 19.3089 22.5302 19.0577 22.47 18.8202ZM6.47 19.3702H3.47V17.3702H6.47V19.3702ZM6.47 15.3702H3.47V9.37015H6.47V15.3702ZM6.47 7.37015H3.47V5.37015H6.47V7.37015ZM11.47 19.3702H8.47V17.3702H11.47V19.3702ZM11.47 15.3702H8.47V9.37015H11.47V15.3702ZM11.47 7.37015H8.47V5.37015H11.47V7.37015ZM13.72 5.63015L16.62 4.85015L17.14 6.78015L14.24 7.56015L13.72 5.63015ZM16.31 15.2902L14.76 9.49015L17.66 8.71015L19.21 14.5102L16.31 15.2902ZM17.31 19.1502L16.79 17.2202L19.69 16.4402L20.21 18.3702L17.31 19.1502Z" fill="#53CA3E"/>
<path d="M33.47 19.0001V9.20012H34.618L39.014 16.6061H38.398L42.738 9.20012H43.886L43.9 19.0001H42.556L42.542 11.3141H42.864L39 17.8101H38.356L34.464 11.3141H34.814V19.0001H33.47ZM46.9671 21.8001C46.6124 21.8001 46.2671 21.7395 45.9311 21.6181C45.5951 21.5061 45.3058 21.3381 45.0631 21.1141L45.6371 20.1061C45.8238 20.2835 46.0291 20.4188 46.2531 20.5121C46.4771 20.6055 46.7151 20.6521 46.9671 20.6521C47.2938 20.6521 47.5644 20.5681 47.7791 20.4001C47.9938 20.2321 48.1944 19.9335 48.3811 19.5041L48.8431 18.4821L48.9831 18.3141L51.8951 11.5801H53.2111L49.6131 19.7421C49.3984 20.2648 49.1558 20.6755 48.8851 20.9741C48.6238 21.2728 48.3344 21.4828 48.0171 21.6041C47.6998 21.7348 47.3498 21.8001 46.9671 21.8001ZM48.7311 19.2381L45.3431 11.5801H46.7431L49.6271 18.1881L48.7311 19.2381ZM61.2772 19.1121C60.5305 19.1121 59.8165 19.0001 59.1352 18.7761C58.4538 18.5428 57.9172 18.2441 57.5252 17.8801L58.0432 16.7881C58.4165 17.1148 58.8925 17.3855 59.4712 17.6001C60.0498 17.8148 60.6518 17.9221 61.2772 17.9221C61.8465 17.9221 62.3085 17.8568 62.6632 17.7261C63.0178 17.5955 63.2792 17.4181 63.4472 17.1941C63.6152 16.9608 63.6992 16.6995 63.6992 16.4101C63.6992 16.0741 63.5872 15.8035 63.3632 15.5981C63.1485 15.3928 62.8638 15.2295 62.5092 15.1081C62.1638 14.9775 61.7812 14.8655 61.3612 14.7721C60.9412 14.6788 60.5165 14.5715 60.0872 14.4501C59.6672 14.3195 59.2798 14.1561 58.9252 13.9601C58.5798 13.7641 58.2998 13.5028 58.0852 13.1761C57.8705 12.8401 57.7632 12.4108 57.7632 11.8881C57.7632 11.3841 57.8938 10.9221 58.1552 10.5021C58.4258 10.0728 58.8365 9.73212 59.3872 9.48012C59.9472 9.21879 60.6565 9.08812 61.5152 9.08812C62.0845 9.08812 62.6492 9.16279 63.2092 9.31212C63.7692 9.46145 64.2545 9.67612 64.6652 9.95612L64.2032 11.0761C63.7832 10.7961 63.3398 10.5955 62.8732 10.4741C62.4065 10.3435 61.9538 10.2781 61.5152 10.2781C60.9645 10.2781 60.5118 10.3481 60.1572 10.4881C59.8025 10.6281 59.5412 10.8148 59.3732 11.0481C59.2145 11.2815 59.1352 11.5428 59.1352 11.8321C59.1352 12.1775 59.2425 12.4528 59.4572 12.6581C59.6812 12.8635 59.9658 13.0268 60.3112 13.1481C60.6658 13.2695 61.0532 13.3815 61.4732 13.4841C61.8932 13.5775 62.3132 13.6848 62.7332 13.8061C63.1625 13.9275 63.5498 14.0861 63.8952 14.2821C64.2498 14.4781 64.5345 14.7395 64.7492 15.0661C64.9638 15.3928 65.0712 15.8128 65.0712 16.3261C65.0712 16.8208 64.9358 17.2828 64.6652 17.7121C64.3945 18.1321 63.9745 18.4728 63.4052 18.7341C62.8452 18.9861 62.1358 19.1121 61.2772 19.1121ZM68.0125 17.2081L68.0405 15.4861L72.3105 11.5801H73.9345L70.6585 14.8001L69.9305 15.4161L68.0125 17.2081ZM66.9205 19.0001V8.61212H68.2645V19.0001H66.9205ZM72.5905 19.0001L69.6785 15.3881L70.5465 14.3101L74.2425 19.0001H72.5905ZM75.5474 19.0001V11.5801H76.8914V19.0001H75.5474ZM76.2194 10.1521C75.9581 10.1521 75.7388 10.0681 75.5614 9.90012C75.3934 9.73212 75.3094 9.52679 75.3094 9.28412C75.3094 9.03212 75.3934 8.82212 75.5614 8.65412C75.7388 8.48612 75.9581 8.40212 76.2194 8.40212C76.4808 8.40212 76.6954 8.48612 76.8634 8.65412C77.0408 8.81279 77.1294 9.01345 77.1294 9.25612C77.1294 9.50812 77.0454 9.72279 76.8774 9.90012C76.7094 10.0681 76.4901 10.1521 76.2194 10.1521ZM79.4576 19.0001V8.61212H80.8016V19.0001H79.4576ZM83.3678 19.0001V8.61212H84.7118V19.0001H83.3678ZM89.4059 19.0841C88.7899 19.0841 88.2019 19.0001 87.6419 18.8321C87.0912 18.6641 86.6572 18.4588 86.3399 18.2161L86.8999 17.1521C87.2172 17.3668 87.6092 17.5488 88.0759 17.6981C88.5426 17.8475 89.0186 17.9221 89.5039 17.9221C90.1292 17.9221 90.5772 17.8335 90.8479 17.6561C91.1279 17.4788 91.2679 17.2315 91.2679 16.9141C91.2679 16.6808 91.1839 16.4988 91.0159 16.3681C90.8479 16.2375 90.6239 16.1395 90.3439 16.0741C90.0732 16.0088 89.7699 15.9528 89.4339 15.9061C89.0979 15.8501 88.7619 15.7848 88.4259 15.7101C88.0899 15.6261 87.7819 15.5141 87.5019 15.3741C87.2219 15.2248 86.9979 15.0241 86.8299 14.7721C86.6619 14.5108 86.5779 14.1655 86.5779 13.7361C86.5779 13.2881 86.7039 12.8961 86.9559 12.5601C87.2079 12.2241 87.5626 11.9675 88.0199 11.7901C88.4866 11.6035 89.0372 11.5101 89.6719 11.5101C90.1572 11.5101 90.6472 11.5708 91.1419 11.6921C91.6459 11.8041 92.0566 11.9675 92.3739 12.1821L91.7999 13.2461C91.4639 13.0221 91.1139 12.8681 90.7499 12.7841C90.3859 12.7001 90.0219 12.6581 89.6579 12.6581C89.0699 12.6581 88.6312 12.7561 88.3419 12.9521C88.0526 13.1388 87.9079 13.3815 87.9079 13.6801C87.9079 13.9321 87.9919 14.1281 88.1599 14.2681C88.3372 14.3988 88.5612 14.5015 88.8319 14.5761C89.1119 14.6508 89.4199 14.7161 89.7559 14.7721C90.0919 14.8188 90.4279 14.8841 90.7639 14.9681C91.0999 15.0428 91.4032 15.1501 91.6739 15.2901C91.9539 15.4301 92.1779 15.6261 92.3459 15.8781C92.5232 16.1301 92.6119 16.4661 92.6119 16.8861C92.6119 17.3341 92.4812 17.7215 92.2199 18.0481C91.9586 18.3748 91.5899 18.6315 91.1139 18.8181C90.6379 18.9955 90.0686 19.0841 89.4059 19.0841Z" fill="#53CA3E"/>
</svg>
