<svg width="78" height="24" viewBox="0 0 78 24" fill="none" xmlns="http://www.w3.org/2000/svg">
<path d="M15.71 12.7101C16.6904 11.9388 17.406 10.881 17.7572 9.68403C18.1085 8.48705 18.0779 7.21036 17.6698 6.03156C17.2617 4.85276 16.4963 3.83048 15.4801 3.10695C14.4639 2.38341 13.2474 1.9946 12 1.9946C10.7525 1.9946 9.53611 2.38341 8.51993 3.10695C7.50374 3.83048 6.73834 4.85276 6.33021 6.03156C5.92208 7.21036 5.89151 8.48705 6.24276 9.68403C6.59401 10.881 7.3096 11.9388 8.29 12.7101C6.61007 13.3831 5.14428 14.4994 4.04889 15.94C2.95349 17.3806 2.26956 19.0914 2.07 20.8901C2.05555 21.0214 2.06711 21.1543 2.10402 21.2811C2.14093 21.408 2.20246 21.5263 2.28511 21.6294C2.45202 21.8376 2.69478 21.9709 2.96 22.0001C3.22521 22.0293 3.49116 21.9519 3.69932 21.785C3.90749 21.6181 4.04082 21.3753 4.07 21.1101C4.28958 19.1553 5.22168 17.3499 6.68822 16.0389C8.15475 14.7279 10.0529 14.0031 12.02 14.0031C13.9871 14.0031 15.8852 14.7279 17.3518 16.0389C18.8183 17.3499 19.7504 19.1553 19.97 21.1101C19.9972 21.3558 20.1144 21.5827 20.2991 21.7471C20.4838 21.9115 20.7228 22.0016 20.97 22.0001H21.08C21.3421 21.9699 21.5817 21.8374 21.7466 21.6313C21.9114 21.4253 21.9881 21.1625 21.96 20.9001C21.7595 19.0963 21.0719 17.3811 19.9708 15.9383C18.8698 14.4955 17.3969 13.3796 15.71 12.7101ZM12 12.0001C11.2089 12.0001 10.4355 11.7655 9.77772 11.326C9.11992 10.8864 8.60723 10.2617 8.30448 9.53083C8.00173 8.79992 7.92251 7.99566 8.07686 7.21973C8.2312 6.44381 8.61216 5.73108 9.17157 5.17166C9.73098 4.61225 10.4437 4.23129 11.2196 4.07695C11.9956 3.92261 12.7998 4.00182 13.5307 4.30457C14.2616 4.60732 14.8863 5.12001 15.3259 5.77781C15.7654 6.43561 16 7.20897 16 8.00009C16 9.06096 15.5786 10.0784 14.8284 10.8285C14.0783 11.5787 13.0609 12.0001 12 12.0001Z" fill="#53CA3E"/>
<path d="M33.47 19.0001V9.20009H37.292C38.1507 9.20009 38.8833 9.33542 39.49 9.60609C40.0967 9.87676 40.5633 10.2688 40.89 10.7821C41.2167 11.2954 41.38 11.9068 41.38 12.6161C41.38 13.3254 41.2167 13.9368 40.89 14.4501C40.5633 14.9541 40.0967 15.3461 39.49 15.6261C38.8833 15.8968 38.1507 16.0321 37.292 16.0321H34.24L34.87 15.3741V19.0001H33.47ZM34.87 15.5141L34.24 14.8141H37.25C38.146 14.8141 38.8227 14.6228 39.28 14.2401C39.7467 13.8574 39.98 13.3161 39.98 12.6161C39.98 11.9161 39.7467 11.3748 39.28 10.9921C38.8227 10.6094 38.146 10.4181 37.25 10.4181H34.24L34.87 9.71809V15.5141ZM43.1041 19.0001V11.5801H44.3921V13.5961L44.2661 13.0921C44.4714 12.5788 44.8167 12.1868 45.3021 11.9161C45.7874 11.6454 46.3847 11.5101 47.0941 11.5101V12.8121C47.0381 12.8028 46.9821 12.7981 46.9261 12.7981C46.8794 12.7981 46.8327 12.7981 46.7861 12.7981C46.0674 12.7981 45.4981 13.0128 45.0781 13.4421C44.6581 13.8714 44.4481 14.4921 44.4481 15.3041V19.0001H43.1041ZM51.8602 19.0841C51.1135 19.0841 50.4509 18.9208 49.8722 18.5941C49.2935 18.2674 48.8362 17.8194 48.5002 17.2501C48.1642 16.6714 47.9962 16.0181 47.9962 15.2901C47.9962 14.5528 48.1642 13.8994 48.5002 13.3301C48.8362 12.7608 49.2935 12.3174 49.8722 12.0001C50.4509 11.6734 51.1135 11.5101 51.8602 11.5101C52.5975 11.5101 53.2555 11.6734 53.8342 12.0001C54.4222 12.3174 54.8795 12.7608 55.2062 13.3301C55.5422 13.8901 55.7102 14.5434 55.7102 15.2901C55.7102 16.0274 55.5422 16.6808 55.2062 17.2501C54.8795 17.8194 54.4222 18.2674 53.8342 18.5941C53.2555 18.9208 52.5975 19.0841 51.8602 19.0841ZM51.8602 17.9081C52.3362 17.9081 52.7609 17.8008 53.1342 17.5861C53.5169 17.3714 53.8155 17.0681 54.0302 16.6761C54.2449 16.2748 54.3522 15.8128 54.3522 15.2901C54.3522 14.7581 54.2449 14.3008 54.0302 13.9181C53.8155 13.5261 53.5169 13.2228 53.1342 13.0081C52.7609 12.7934 52.3362 12.6861 51.8602 12.6861C51.3842 12.6861 50.9595 12.7934 50.5862 13.0081C50.2129 13.2228 49.9142 13.5261 49.6902 13.9181C49.4662 14.3008 49.3542 14.7581 49.3542 15.2901C49.3542 15.8128 49.4662 16.2748 49.6902 16.6761C49.9142 17.0681 50.2129 17.3714 50.5862 17.5861C50.9595 17.8008 51.3842 17.9081 51.8602 17.9081ZM57.7649 19.0001V10.9221C57.7649 10.1941 57.9749 9.61542 58.3949 9.18609C58.8243 8.74742 59.4309 8.52809 60.2149 8.52809C60.5043 8.52809 60.7796 8.56542 61.0409 8.64009C61.3116 8.70542 61.5403 8.81276 61.7269 8.96209L61.3209 9.98409C61.1809 9.87209 61.0223 9.78809 60.8449 9.73209C60.6676 9.66676 60.4809 9.63409 60.2849 9.63409C59.8929 9.63409 59.5943 9.74609 59.3889 9.97009C59.1836 10.1848 59.0809 10.5068 59.0809 10.9361V11.9301L59.1089 12.5461V19.0001H57.7649ZM56.5049 12.6861V11.5801H61.2369V12.6861H56.5049ZM62.5109 19.0001V11.5801H63.8549V19.0001H62.5109ZM63.1829 10.1521C62.9216 10.1521 62.7023 10.0681 62.5249 9.90009C62.3569 9.73209 62.2729 9.52676 62.2729 9.28409C62.2729 9.03209 62.3569 8.82209 62.5249 8.65409C62.7023 8.48609 62.9216 8.40209 63.1829 8.40209C63.4443 8.40209 63.6589 8.48609 63.8269 8.65409C64.0043 8.81276 64.0929 9.01342 64.0929 9.25609C64.0929 9.50809 64.0089 9.72276 63.8409 9.90009C63.6729 10.0681 63.4536 10.1521 63.1829 10.1521ZM66.4146 19.0001V8.61209H67.7586V19.0001H66.4146ZM73.6288 19.0841C72.8354 19.0841 72.1354 18.9208 71.5288 18.5941C70.9314 18.2674 70.4648 17.8194 70.1288 17.2501C69.8021 16.6808 69.6388 16.0274 69.6388 15.2901C69.6388 14.5528 69.7974 13.8994 70.1148 13.3301C70.4414 12.7608 70.8848 12.3174 71.4448 12.0001C72.0141 11.6734 72.6534 11.5101 73.3628 11.5101C74.0814 11.5101 74.7161 11.6688 75.2668 11.9861C75.8174 12.3034 76.2468 12.7514 76.5548 13.3301C76.8721 13.8994 77.0308 14.5668 77.0308 15.3321C77.0308 15.3881 77.0261 15.4534 77.0168 15.5281C77.0168 15.6028 77.0121 15.6728 77.0028 15.7381H70.6888V14.7721H76.3028L75.7568 15.1081C75.7661 14.6321 75.6681 14.2074 75.4628 13.8341C75.2574 13.4608 74.9728 13.1714 74.6088 12.9661C74.2541 12.7514 73.8388 12.6441 73.3628 12.6441C72.8961 12.6441 72.4808 12.7514 72.1168 12.9661C71.7528 13.1714 71.4681 13.4654 71.2628 13.8481C71.0574 14.2214 70.9548 14.6508 70.9548 15.1361V15.3601C70.9548 15.8548 71.0668 16.2981 71.2908 16.6901C71.5241 17.0728 71.8461 17.3714 72.2568 17.5861C72.6674 17.8008 73.1388 17.9081 73.6708 17.9081C74.1094 17.9081 74.5061 17.8334 74.8608 17.6841C75.2248 17.5348 75.5421 17.3108 75.8128 17.0121L76.5548 17.8801C76.2188 18.2721 75.7988 18.5708 75.2948 18.7761C74.8001 18.9814 74.2448 19.0841 73.6288 19.0841Z" fill="#53CA3E"/>
</svg>
