<svg width="8" height="12" viewBox="0 0 8 12" fill="none" xmlns="http://www.w3.org/2000/svg">
<path d="M3.28982 6L6.82982 2.46C7.01607 2.27264 7.12061 2.01919 7.12061 1.755C7.12061 1.49082 7.01607 1.23736 6.82982 1.05C6.73686 0.956274 6.62626 0.881879 6.5044 0.83111C6.38254 0.780342 6.25183 0.754204 6.11982 0.754204C5.98781 0.754204 5.8571 0.780342 5.73524 0.83111C5.61339 0.881879 5.50278 0.956274 5.40982 1.05L1.16982 5.29C1.07609 5.38297 1.0017 5.49357 0.950931 5.61543C0.900162 5.73728 0.874023 5.86799 0.874023 6C0.874023 6.13201 0.900162 6.26272 0.950931 6.38458C1.0017 6.50644 1.07609 6.61704 1.16982 6.71L5.40982 11C5.50326 11.0927 5.61408 11.166 5.73592 11.2158C5.85775 11.2655 5.98821 11.2908 6.11982 11.29C6.25143 11.2908 6.38189 11.2655 6.50373 11.2158C6.62557 11.166 6.73638 11.0927 6.82982 11C7.01607 10.8126 7.12061 10.5592 7.12061 10.295C7.12061 10.0308 7.01607 9.77736 6.82982 9.59L3.28982 6Z" fill="#6F6E6E"/>
</svg>
