<svg width="72" height="60" viewBox="0 0 72 60" fill="none" xmlns="http://www.w3.org/2000/svg">
<path d="M63.8694 58.744V35H71.1014V58.744H63.8694Z" fill="#444444"/>
<path d="M53.4319 58.744V35H60.6639V58.744H53.4319Z" fill="#444444"/>
<path d="M43.0881 58.7441V41.2401H50.3201V58.7441H43.0881Z" fill="#444444"/>
<path d="M46.84 40.104C45.5174 40.104 44.4614 39.752 43.672 39.048C42.8827 38.344 42.488 37.4694 42.488 36.424C42.488 35.3787 42.8827 34.504 43.672 33.8C44.4614 33.096 45.5174 32.744 46.84 32.744C48.1627 32.744 49.2187 33.0747 50.008 33.736C50.7974 34.3974 51.192 35.2507 51.192 36.296C51.192 37.4054 50.7974 38.3227 50.008 39.048C49.2187 39.752 48.1627 40.104 46.84 40.104Z" fill="#53CA3E"/>
<path d="M8.936 59.064C7.44267 59.064 5.97067 58.904 4.52 58.584C3.06933 58.264 1.896 57.848 1 57.336L2.984 52.568C3.816 53.0587 4.776 53.4427 5.864 53.72C6.97333 53.9974 8.05067 54.136 9.096 54.136C9.97067 54.136 10.5573 54.0614 10.856 53.912C11.176 53.7627 11.336 53.56 11.336 53.304C11.336 53.048 11.1547 52.8667 10.792 52.76C10.4293 52.632 9.94933 52.536 9.352 52.472C8.75467 52.408 8.09333 52.3334 7.368 52.248C6.664 52.1414 5.94933 51.992 5.224 51.8C4.49867 51.608 3.83733 51.32 3.24 50.936C2.64267 50.552 2.16267 50.04 1.8 49.4C1.43733 48.7387 1.256 47.9067 1.256 46.904C1.256 45.7947 1.58667 44.792 2.248 43.896C2.93067 43 3.93333 42.2854 5.256 41.752C6.6 41.1974 8.25333 40.92 10.216 40.92C11.496 40.92 12.776 41.0374 14.056 41.272C15.336 41.5067 16.4347 41.8694 17.352 42.36L15.368 47.128C14.472 46.6374 13.5867 46.3067 12.712 46.136C11.8587 45.944 11.0587 45.848 10.312 45.848C9.39467 45.848 8.76533 45.9334 8.424 46.104C8.104 46.2747 7.944 46.4667 7.944 46.68C7.944 46.936 8.12533 47.128 8.488 47.256C8.85067 47.384 9.33067 47.48 9.928 47.544C10.5253 47.608 11.176 47.6934 11.88 47.8C12.6053 47.8854 13.32 48.0347 14.024 48.248C14.7493 48.44 15.4107 48.728 16.008 49.112C16.6053 49.496 17.0853 50.0187 17.448 50.68C17.8107 51.32 17.992 52.1414 17.992 53.144C17.992 54.1894 17.6613 55.1707 17 56.088C16.3387 56.984 15.336 57.7094 13.992 58.264C12.648 58.7974 10.9627 59.064 8.936 59.064Z" fill="#444444"/>
<path d="M8.936 24.064C7.44267 24.064 5.97067 23.904 4.52 23.584C3.06933 23.264 1.896 22.848 1 22.336L2.984 17.568C3.816 18.0587 4.776 18.4427 5.864 18.72C6.97333 18.9974 8.05067 19.136 9.096 19.136C9.97067 19.136 10.5573 19.0614 10.856 18.912C11.176 18.7627 11.336 18.56 11.336 18.304C11.336 18.048 11.1547 17.8667 10.792 17.76C10.4293 17.632 9.94933 17.536 9.352 17.472C8.75467 17.408 8.09333 17.3334 7.368 17.248C6.664 17.1414 5.94933 16.992 5.224 16.8C4.49867 16.608 3.83733 16.32 3.24 15.936C2.64267 15.552 2.16267 15.04 1.8 14.4C1.43733 13.7387 1.256 12.9067 1.256 11.904C1.256 10.7947 1.58667 9.79204 2.248 8.89604C2.93067 8.00004 3.93333 7.28538 5.256 6.75204C6.6 6.19738 8.25333 5.92004 10.216 5.92004C11.496 5.92004 12.776 6.03738 14.056 6.27205C15.336 6.50671 16.4347 6.86938 17.352 7.36004L15.368 12.128C14.472 11.6374 13.5867 11.3067 12.712 11.136C11.8587 10.944 11.0587 10.848 10.312 10.848C9.39467 10.848 8.76533 10.9334 8.424 11.104C8.104 11.2747 7.944 11.4667 7.944 11.68C7.944 11.936 8.12533 12.128 8.488 12.256C8.85067 12.384 9.33067 12.48 9.928 12.544C10.5253 12.608 11.176 12.6934 11.88 12.8C12.6053 12.8854 13.32 13.0347 14.024 13.248C14.7493 13.44 15.4107 13.728 16.008 14.112C16.6053 14.496 17.0853 15.0187 17.448 15.68C17.8107 16.32 17.992 17.1414 17.992 18.144C17.992 19.1894 17.6613 20.1707 17 21.088C16.3387 21.984 15.336 22.7094 13.992 23.264C12.648 23.7974 10.9627 24.064 8.936 24.064Z" fill="#444444"/>
<path fill-rule="evenodd" clip-rule="evenodd" d="M23.7017 23.232C24.8323 23.7867 26.091 24.064 27.4777 24.064C28.8003 24.064 30.027 23.744 31.1577 23.104C31.629 22.8334 32.0556 22.504 32.4377 22.1156V23.744H39.3177V6.23999H32.0857V14.464C32.0857 15.3173 31.9683 16.0107 31.7337 16.544C31.499 17.056 31.1897 17.4293 30.8057 17.664C30.443 17.8773 30.0483 17.984 29.6217 17.984C28.9177 17.984 28.363 17.7387 27.9577 17.248C27.5523 16.7573 27.3497 15.8933 27.3497 14.656V6.23999H20.1177V15.904C20.1177 17.8027 20.4377 19.36 21.0777 20.576C21.7177 21.7707 22.5923 22.656 23.7017 23.232Z" fill="#444444"/>
<path fill-rule="evenodd" clip-rule="evenodd" d="M50.3336 23.104C51.315 23.744 52.6056 24.064 54.2056 24.064C55.7416 24.064 57.1496 23.7013 58.4296 22.976C59.7096 22.2293 60.7336 21.184 61.5016 19.84C62.2696 18.4747 62.6536 16.8533 62.6536 14.976C62.6536 13.0987 62.2696 11.488 61.5016 10.144C60.7336 8.77867 59.7096 7.73333 58.4296 7.008C57.1496 6.28267 55.7416 5.92 54.2056 5.92C52.691 5.92 51.4323 6.25067 50.4296 6.912C50.1904 7.06801 49.9664 7.24493 49.7576 7.44277V0H42.5256V23.744H49.4056V22.3075C49.6826 22.6157 49.992 22.8812 50.3336 23.104ZM53.9176 18.048C53.491 18.304 53.011 18.432 52.4776 18.432C51.9443 18.432 51.4643 18.304 51.0376 18.048C50.611 17.792 50.2696 17.408 50.0136 16.896C49.7576 16.3627 49.6296 15.7227 49.6296 14.976C49.6296 14.208 49.7576 13.5787 50.0136 13.088C50.2696 12.576 50.611 12.192 51.0376 11.936C51.4643 11.68 51.9443 11.552 52.4776 11.552C53.011 11.552 53.491 11.68 53.9176 11.936C54.3443 12.192 54.6856 12.576 54.9416 13.088C55.1976 13.5787 55.3256 14.208 55.3256 14.976C55.3256 15.7227 55.1976 16.3627 54.9416 16.896C54.6856 17.408 54.3443 17.792 53.9176 18.048Z" fill="#444444"/>
<path d="M32.4379 41.24H40.9819L33.7499 48.8191L41.5579 58.744H32.8219L28.5796 53.3704L27.4139 54.6075V58.744H20.1819V35H27.4139V46.3172L32.4379 41.24Z" fill="#444444"/>
</svg>
