<svg width="61" height="51" viewBox="0 0 61 51" fill="none" xmlns="http://www.w3.org/2000/svg">
<path d="M54.7068 50.7237V30.2215H60.9998V50.7237H54.7068Z" fill="#444444"/>
<path d="M45.6245 50.7237V30.2215H51.9176V50.7237H45.6245Z" fill="#444444"/>
<path d="M36.6237 50.7237V35.6096H42.9168V50.7237H36.6237Z" fill="#444444"/>
<path d="M39.8885 34.6286C38.7376 34.6286 37.8187 34.3246 37.1318 33.7168C36.445 33.1089 36.1016 32.3536 36.1016 31.451C36.1016 30.5484 36.445 29.7931 37.1318 29.1853C37.8187 28.5774 38.7376 28.2734 39.8885 28.2734C41.0395 28.2734 41.9584 28.559 42.6452 29.13C43.3321 29.701 43.6755 30.4379 43.6755 31.3405C43.6755 32.2984 43.3321 33.0905 42.6452 33.7168C41.9584 34.3246 41.0395 34.6286 39.8885 34.6286Z" fill="#53CA3E"/>
<path d="M6.90565 51C5.6062 51 4.32532 50.8618 3.06299 50.5855C1.80067 50.3092 0.779671 49.95 0 49.5079L1.72641 45.3909C2.45039 45.8146 3.28576 46.1461 4.2325 46.3856C5.1978 46.6251 6.13527 46.7448 7.04488 46.7448C7.80599 46.7448 8.31649 46.6803 8.57638 46.5514C8.85483 46.4225 8.99406 46.2475 8.99406 46.0264C8.99406 45.8054 8.83627 45.6488 8.52069 45.5567C8.20511 45.4462 7.78743 45.3633 7.26764 45.308C6.74786 45.2527 6.17239 45.1883 5.54123 45.1146C4.92863 45.0225 4.30675 44.8935 3.67559 44.7277C3.04443 44.562 2.46896 44.3133 1.94918 43.9817C1.4294 43.6501 1.01172 43.208 0.696135 42.6554C0.380554 42.0844 0.222763 41.366 0.222763 40.5002C0.222763 39.5423 0.510499 38.6766 1.08597 37.9029C1.68 37.1292 2.55249 36.5121 3.70344 36.0516C4.87294 35.5727 6.31162 35.3332 8.01947 35.3332C9.13329 35.3332 10.2471 35.4345 11.3609 35.6371C12.4747 35.8398 13.4308 36.1529 14.229 36.5766L12.5026 40.6936C11.7229 40.2699 10.9525 39.9844 10.1914 39.8371C9.44887 39.6713 8.75273 39.5884 8.10301 39.5884C7.30477 39.5884 6.75715 39.6621 6.46013 39.8094C6.18167 39.9568 6.04245 40.1226 6.04245 40.3068C6.04245 40.5278 6.20024 40.6936 6.51582 40.8041C6.8314 40.9147 7.24908 40.9976 7.76886 41.0528C8.28864 41.1081 8.85483 41.1818 9.46743 41.2739C10.0986 41.3475 10.7205 41.4765 11.3331 41.6607C11.9642 41.8265 12.5397 42.0752 13.0595 42.4067C13.5793 42.7383 13.9969 43.1896 14.3125 43.7607C14.6281 44.3133 14.7859 45.0225 14.7859 45.8883C14.7859 46.7909 14.4982 47.6382 13.9227 48.4303C13.3472 49.204 12.4747 49.8303 11.3052 50.3092C10.1357 50.7697 8.6692 51 6.90565 51Z" fill="#444444"/>
<path d="M6.90565 20.7786C5.6062 20.7786 4.32532 20.6404 3.06299 20.3641C1.80067 20.0878 0.779671 19.7286 0 19.2865L1.72641 15.1695C2.45039 15.5932 3.28576 15.9247 4.2325 16.1642C5.1978 16.4037 6.13527 16.5234 7.04488 16.5234C7.80599 16.5234 8.31649 16.4589 8.57638 16.33C8.85483 16.2011 8.99406 16.0261 8.99406 15.805C8.99406 15.584 8.83627 15.4274 8.52069 15.3353C8.20511 15.2248 7.78743 15.1419 7.26764 15.0866C6.74786 15.0313 6.17239 14.9669 5.54123 14.8932C4.92863 14.8011 4.30675 14.6721 3.67559 14.5064C3.04443 14.3406 2.46896 14.0919 1.94918 13.7603C1.4294 13.4287 1.01172 12.9866 0.696135 12.434C0.380554 11.863 0.222763 11.1446 0.222763 10.2788C0.222763 9.32093 0.510499 8.45516 1.08597 7.68149C1.68 6.90782 2.55249 6.29073 3.70344 5.83021C4.87294 5.35127 6.31162 5.1118 8.01947 5.1118C9.13329 5.1118 10.2471 5.21312 11.3609 5.41575C12.4747 5.61837 13.4308 5.93153 14.229 6.3552L12.5026 10.4722C11.7229 10.0485 10.9525 9.76303 10.1914 9.61566C9.44887 9.44987 8.75273 9.36698 8.10301 9.36698C7.30477 9.36698 6.75715 9.44067 6.46013 9.58803C6.18167 9.7354 6.04245 9.90118 6.04245 10.0854C6.04245 10.3064 6.20024 10.4722 6.51582 10.5827C6.8314 10.6933 7.24908 10.7762 7.76886 10.8314C8.28864 10.8867 8.85483 10.9604 9.46743 11.0525C10.0986 11.1262 10.7205 11.2551 11.3331 11.4393C11.9642 11.6051 12.5397 11.8538 13.0595 12.1853C13.5793 12.5169 13.9969 12.9682 14.3125 13.5393C14.6281 14.0919 14.7859 14.8011 14.7859 15.6669C14.7859 16.5695 14.4982 17.4168 13.9227 18.2089C13.3472 18.9826 12.4747 19.6089 11.3052 20.0878C10.1357 20.5483 8.6692 20.7786 6.90565 20.7786Z" fill="#444444"/>
<path fill-rule="evenodd" clip-rule="evenodd" d="M19.7544 20.0601C20.7383 20.539 21.8335 20.7785 23.0402 20.7785C24.1911 20.7785 25.2585 20.5022 26.2424 19.9496C26.6525 19.7159 27.0238 19.4315 27.3562 19.0961V20.5022H33.343V5.38802H27.0499V12.4892C27.0499 13.226 26.9478 13.8247 26.7436 14.2852C26.5394 14.7273 26.2702 15.0497 25.9361 15.2523C25.6205 15.4365 25.2771 15.5286 24.9058 15.5286C24.2932 15.5286 23.8106 15.3168 23.4579 14.8931C23.1052 14.4694 22.9288 13.7234 22.9288 12.655V5.38802H16.6357V13.7326C16.6357 15.372 16.9142 16.7167 17.4711 17.7667C18.028 18.7983 18.7891 19.5627 19.7544 20.0601Z" fill="#444444"/>
<path fill-rule="evenodd" clip-rule="evenodd" d="M42.9285 19.9496C43.7825 20.5022 44.9056 20.7785 46.2978 20.7785C47.6344 20.7785 48.8596 20.4654 49.9734 19.8391C51.0872 19.1944 51.9783 18.2917 52.6466 17.1312C53.3149 15.9523 53.649 14.5523 53.649 12.9313C53.649 11.3103 53.3149 9.91954 52.6466 8.75904C51.9783 7.58011 51.0872 6.6775 49.9734 6.0512C48.8596 5.42489 47.6344 5.11174 46.2978 5.11174C44.9798 5.11174 43.8846 5.39726 43.0121 5.9683C42.8039 6.10301 42.609 6.25578 42.4273 6.42661V0H36.1343V20.5022H42.121V19.2619C42.3621 19.528 42.6312 19.7572 42.9285 19.9496ZM46.0472 15.5839C45.676 15.8049 45.2583 15.9155 44.7942 15.9155C44.3301 15.9155 43.9124 15.8049 43.5411 15.5839C43.1699 15.3629 42.8729 15.0313 42.6501 14.5892C42.4273 14.1287 42.3159 13.576 42.3159 12.9313C42.3159 12.2682 42.4273 11.7248 42.6501 11.3011C42.8729 10.859 43.1699 10.5274 43.5411 10.3064C43.9124 10.0853 44.3301 9.9748 44.7942 9.9748C45.2583 9.9748 45.676 10.0853 46.0472 10.3064C46.4185 10.5274 46.7155 10.859 46.9383 11.3011C47.161 11.7248 47.2724 12.2682 47.2724 12.9313C47.2724 13.576 47.161 14.1287 46.9383 14.5892C46.7155 15.0313 46.4185 15.3629 46.0472 15.5839Z" fill="#444444"/>
<path d="M27.3562 35.6095H34.7909L28.4979 42.1538L35.2921 50.7237H27.6903L23.9988 46.0838L22.9845 47.1519V50.7237H16.6914V30.2215H22.9845V39.9935L27.3562 35.6095Z" fill="#444444"/>
</svg>
