<svg width="24" height="24" viewBox="0 0 24 24" fill="none" xmlns="http://www.w3.org/2000/svg">
<path fill-rule="evenodd" clip-rule="evenodd" d="M15.725 22.0001V14.2551H18.325L18.714 11.2371H15.724V9.31012C15.724 8.43612 15.967 7.84012 17.221 7.84012H18.819V5.14012C18.0451 5.05777 17.2673 5.01771 16.489 5.02012C14.185 5.02012 12.608 6.42712 12.608 9.01012V11.2371H10V14.2551H12.607V22.0001H3.104C2.494 22.0001 2 21.5061 2 20.8961V3.10412C2 2.49412 2.494 2.00012 3.104 2.00012H20.896C21.506 2.00012 22 2.49412 22 3.10412V20.8961C22 21.5061 21.506 22.0001 20.896 22.0001H15.725Z" fill="#3D5A98"/>
</svg>
