<svg width="25" height="24" viewBox="0 0 25 24" fill="none" xmlns="http://www.w3.org/2000/svg">
<path d="M12.6098 15.39L8.72984 19.27C8.26007 19.7233 7.6327 19.9767 6.97984 19.9767C6.32698 19.9767 5.6996 19.7233 5.22984 19.27C4.99944 19.0405 4.81663 18.7678 4.69189 18.4675C4.56715 18.1671 4.50294 17.8452 4.50294 17.52C4.50294 17.1948 4.56715 16.8728 4.69189 16.5725C4.81663 16.2722 4.99944 15.9995 5.22984 15.77L9.10984 11.89C9.29814 11.7017 9.40393 11.4463 9.40393 11.18C9.40393 10.9137 9.29814 10.6583 9.10984 10.47C8.92153 10.2817 8.66614 10.1759 8.39984 10.1759C8.13353 10.1759 7.87814 10.2817 7.68984 10.47L3.80984 14.36C3.02819 15.2108 2.60546 16.3306 2.62991 17.4857C2.65436 18.6408 3.12412 19.7418 3.94107 20.5587C4.75802 21.3757 5.859 21.8454 7.01408 21.8699C8.16917 21.8944 9.28904 21.4716 10.1398 20.69L14.0298 16.81C14.1231 16.7167 14.197 16.606 14.2475 16.4842C14.298 16.3624 14.3239 16.2318 14.3239 16.1C14.3239 15.9681 14.298 15.8375 14.2475 15.7157C14.197 15.5939 14.1231 15.4832 14.0298 15.39C13.9366 15.2967 13.8259 15.2228 13.7041 15.1723C13.5823 15.1219 13.4517 15.0959 13.3198 15.0959C13.188 15.0959 13.0574 15.1219 12.9356 15.1723C12.8138 15.2228 12.7031 15.2967 12.6098 15.39ZM21.1898 3.30997C20.3486 2.47398 19.2108 2.00476 18.0248 2.00476C16.8389 2.00476 15.7011 2.47398 14.8598 3.30997L10.9698 7.18997C10.8766 7.28321 10.8026 7.3939 10.7522 7.51572C10.7017 7.63755 10.6757 7.76811 10.6757 7.89997C10.6757 8.03183 10.7017 8.1624 10.7522 8.28422C10.8026 8.40604 10.8766 8.51673 10.9698 8.60997C11.0631 8.70321 11.1738 8.77717 11.2956 8.82763C11.4174 8.87809 11.548 8.90406 11.6798 8.90406C11.8117 8.90406 11.9423 8.87809 12.0641 8.82763C12.1859 8.77717 12.2966 8.70321 12.3898 8.60997L16.2698 4.72997C16.7396 4.2766 17.367 4.02323 18.0198 4.02323C18.6727 4.02323 19.3001 4.2766 19.7698 4.72997C20.0002 4.95946 20.183 5.23218 20.3078 5.53249C20.4325 5.8328 20.4967 6.15479 20.4967 6.47997C20.4967 6.80516 20.4325 7.12714 20.3078 7.42745C20.183 7.72776 20.0002 8.00049 19.7698 8.22997L15.8898 12.11C15.7961 12.2029 15.7217 12.3135 15.6709 12.4354C15.6202 12.5573 15.594 12.688 15.594 12.82C15.594 12.952 15.6202 13.0827 15.6709 13.2045C15.7217 13.3264 15.7961 13.437 15.8898 13.53C15.9828 13.6237 16.0934 13.6981 16.2153 13.7489C16.3371 13.7996 16.4678 13.8258 16.5998 13.8258C16.7318 13.8258 16.8626 13.7996 16.9844 13.7489C17.1063 13.6981 17.2169 13.6237 17.3098 13.53L21.1898 9.63997C22.0258 8.79875 22.495 7.66095 22.495 6.47497C22.495 5.289 22.0258 4.15119 21.1898 3.30997ZM9.32984 15.17C9.42328 15.2627 9.53409 15.336 9.65593 15.3857C9.77777 15.4355 9.90823 15.4607 10.0398 15.46C10.1714 15.4607 10.3019 15.4355 10.4237 15.3857C10.5456 15.336 10.6564 15.2627 10.7498 15.17L15.6698 10.25C15.8581 10.0617 15.9639 9.80627 15.9639 9.53997C15.9639 9.27367 15.8581 9.01828 15.6698 8.82997C15.4815 8.64167 15.2261 8.53588 14.9598 8.53588C14.6935 8.53588 14.4381 8.64167 14.2498 8.82997L9.32984 13.75C9.23611 13.8429 9.16171 13.9535 9.11095 14.0754C9.06018 14.1973 9.03404 14.328 9.03404 14.46C9.03404 14.592 9.06018 14.7227 9.11095 14.8445C9.16171 14.9664 9.23611 15.077 9.32984 15.17Z" fill="#A9A9A9"/>
</svg>
