<svg width="25" height="24" viewBox="0 0 25 24" fill="none" xmlns="http://www.w3.org/2000/svg">
<path d="M20.9701 2.00002H4.03006C3.83964 1.99737 3.65056 2.03227 3.47362 2.1027C3.29669 2.17314 3.13536 2.27774 2.99886 2.41053C2.86235 2.54332 2.75334 2.7017 2.67805 2.87663C2.60276 3.05155 2.56267 3.2396 2.56006 3.43002V20.57C2.56267 20.7604 2.60276 20.9485 2.67805 21.1234C2.75334 21.2983 2.86235 21.4567 2.99886 21.5895C3.13536 21.7223 3.29669 21.8269 3.47362 21.8973C3.65056 21.9678 3.83964 22.0027 4.03006 22H20.9701C21.1605 22.0027 21.3496 21.9678 21.5265 21.8973C21.7034 21.8269 21.8648 21.7223 22.0013 21.5895C22.1378 21.4567 22.2468 21.2983 22.3221 21.1234C22.3974 20.9485 22.4375 20.7604 22.4401 20.57V3.43002C22.4375 3.2396 22.3974 3.05155 22.3221 2.87663C22.2468 2.7017 22.1378 2.54332 22.0013 2.41053C21.8648 2.27774 21.7034 2.17314 21.5265 2.1027C21.3496 2.03227 21.1605 1.99737 20.9701 2.00002ZM8.59006 18.74H5.59006V9.74002H8.59006V18.74ZM7.09006 8.48002C6.67632 8.48002 6.27953 8.31566 5.98697 8.0231C5.69442 7.73055 5.53006 7.33376 5.53006 6.92002C5.53006 6.50628 5.69442 6.10949 5.98697 5.81693C6.27953 5.52437 6.67632 5.36002 7.09006 5.36002C7.30975 5.3351 7.53224 5.35687 7.74293 5.4239C7.95363 5.49093 8.1478 5.60171 8.31272 5.74898C8.47763 5.89625 8.60958 6.0767 8.69993 6.2785C8.79028 6.4803 8.83698 6.69891 8.83698 6.92002C8.83698 7.14112 8.79028 7.35973 8.69993 7.56154C8.60958 7.76334 8.47763 7.94378 8.31272 8.09106C8.1478 8.23833 7.95363 8.3491 7.74293 8.41613C7.53224 8.48316 7.30975 8.50493 7.09006 8.48002ZM19.4101 18.74H16.4101V13.91C16.4101 12.7 15.9801 11.91 14.8901 11.91C14.5527 11.9125 14.2242 12.0183 13.9489 12.2132C13.6735 12.4081 13.4645 12.6827 13.3501 13C13.2718 13.2351 13.2379 13.4826 13.2501 13.73V18.73H10.2501V9.73002H13.2501V11C13.5226 10.5271 13.919 10.1375 14.3965 9.87322C14.874 9.6089 15.4146 9.47987 15.9601 9.50002C17.9601 9.50002 19.4101 10.79 19.4101 13.56V18.74Z" fill="#A9A9A9"/>
</svg>
