<svg width="25" height="24" viewBox="0 0 25 24" fill="none" xmlns="http://www.w3.org/2000/svg">
<path d="M22.5 5.79997C21.7483 6.12606 20.9534 6.34163 20.14 6.43997C20.9982 5.92729 21.6413 5.12075 21.95 4.16997C21.1436 4.65003 20.2608 4.98826 19.34 5.16997C18.7245 4.50254 17.905 4.05826 17.0098 3.90682C16.1147 3.75537 15.1945 3.90532 14.3938 4.33315C13.593 4.76099 12.9569 5.4425 12.5852 6.2708C12.2135 7.09911 12.1273 8.02736 12.34 8.90997C10.7094 8.82749 9.11444 8.40292 7.65865 7.66383C6.20287 6.92474 4.91885 5.88766 3.89 4.61997C3.52914 5.25013 3.33952 5.96379 3.34 6.68997C3.33872 7.36435 3.50422 8.02858 3.82176 8.62353C4.13929 9.21848 4.59902 9.72568 5.16 10.1C4.50798 10.0822 3.86989 9.90726 3.3 9.58997V9.63997C3.30489 10.5849 3.63599 11.4991 4.23731 12.2279C4.83864 12.9568 5.67326 13.4556 6.6 13.64C6.24326 13.7485 5.87287 13.8058 5.5 13.81C5.24189 13.807 4.98442 13.7835 4.73 13.74C4.99391 14.5528 5.50462 15.2631 6.19107 15.7721C6.87753 16.2811 7.70558 16.5635 8.56 16.58C7.1172 17.7152 5.33588 18.3348 3.5 18.34C3.16574 18.3411 2.83174 18.321 2.5 18.28C4.37443 19.4902 6.55881 20.1327 8.79 20.13C10.3297 20.146 11.8571 19.855 13.2831 19.274C14.7091 18.6931 16.005 17.8338 17.0952 16.7465C18.1854 15.6591 19.048 14.3654 19.6326 12.9409C20.2172 11.5164 20.512 9.98969 20.5 8.44997V7.91997C21.2847 7.33478 21.9615 6.61739 22.5 5.79997Z" fill="#A9A9A9"/>
</svg>
